<?xml version="1.0" encoding="UTF-8" standalone="no"?>
<svg width="45px" height="45px" viewBox="0 0 45 45" version="1.1" xmlns="http://www.w3.org/2000/svg" xmlns:xlink="http://www.w3.org/1999/xlink" xmlns:sketch="http://www.bohemiancoding.com/sketch/ns">
    <!-- Generator: Sketch 3.2.2 (9983) - http://www.bohemiancoding.com/sketch -->
    <title>Rectangle 2</title>
    <desc>Created with Sketch.</desc>
    <defs></defs>
    <g id="Page-1" stroke="none" stroke-width="1" fill="none" fill-rule="evenodd" sketch:type="MSPage">
        <g id="Film-Icon" sketch:type="MSLayerGroup">
            <path d="M0,2.66355007 C0,1.19251199 1.2036413,0 2.66355007,0 L42.3364499,0 C43.807488,0 45,1.2036413 45,2.66355007 L45,45 L0,45 L0,2.66355007 Z M34,39.0029293 C34,38.4490268 34.4378814,38 35.0029293,38 L39.9970707,38 C40.5509732,38 41,38.4378814 41,39.0029293 L41,45 L34,45 L34,39.0029293 Z M34,28.0029293 C34,27.4490268 34.4378814,27 35.0029293,27 L39.9970707,27 C40.5509732,27 41,27.4378814 41,28.0029293 L41,32.9970707 C41,33.5509732 40.5621186,34 39.9970707,34 L35.0029293,34 C34.4490268,34 34,33.5621186 34,32.9970707 L34,28.0029293 Z M34,17.0029293 C34,16.4490268 34.4378814,16 35.0029293,16 L39.9970707,16 C40.5509732,16 41,16.4378814 41,17.0029293 L41,21.9970707 C41,22.5509732 40.5621186,23 39.9970707,23 L35.0029293,23 C34.4490268,23 34,22.5621186 34,21.9970707 L34,17.0029293 Z M34,6.00292933 C34,5.44902676 34.4378814,5 35.0029293,5 L39.9970707,5 C40.5509732,5 41,5.43788135 41,6.00292933 L41,10.9970707 C41,11.5509732 40.5621186,12 39.9970707,12 L35.0029293,12 C34.4490268,12 34,11.5621186 34,10.9970707 L34,6.00292933 Z M4,39.0029293 C4,38.4490268 4.43788135,38 5.00292933,38 L9.99707067,38 C10.5509732,38 11,38.4378814 11,39.0029293 L11,45 L4,45 L4,39.0029293 Z M4,28.0029293 C4,27.4490268 4.43788135,27 5.00292933,27 L9.99707067,27 C10.5509732,27 11,27.4378814 11,28.0029293 L11,32.9970707 C11,33.5509732 10.5621186,34 9.99707067,34 L5.00292933,34 C4.44902676,34 4,33.5621186 4,32.9970707 L4,28.0029293 Z M4,17.0029293 C4,16.4490268 4.43788135,16 5.00292933,16 L9.99707067,16 C10.5509732,16 11,16.4378814 11,17.0029293 L11,21.9970707 C11,22.5509732 10.5621186,23 9.99707067,23 L5.00292933,23 C4.44902676,23 4,22.5621186 4,21.9970707 L4,17.0029293 Z M4,6.00292933 C4,5.44902676 4.43788135,5 5.00292933,5 L9.99707067,5 C10.5509732,5 11,5.43788135 11,6.00292933 L11,10.9970707 C11,11.5509732 10.5621186,12 9.99707067,12 L5.00292933,12 C4.44902676,12 4,11.5621186 4,10.9970707 L4,6.00292933 Z" id="Rectangle-2" fill="#FFFFFF" sketch:type="MSShapeGroup"></path>
            <g id="Strip-R" transform="translate(34.000000, 5.000000)"></g>
            <g id="Strip-L" transform="translate(4.000000, 5.000000)"></g>
        </g>
    </g>
</svg>