<?xml version="1.0" encoding="UTF-8" standalone="no"?>
<svg width="50px" height="45px" viewBox="0 0 50 45" version="1.1" xmlns="http://www.w3.org/2000/svg" xmlns:xlink="http://www.w3.org/1999/xlink" xmlns:sketch="http://www.bohemiancoding.com/sketch/ns">
    <!-- Generator: Sketch 3.2.2 (9983) - http://www.bohemiancoding.com/sketch -->
    <title>Logo</title>
    <desc>Created with Sketch.</desc>
    <defs></defs>
    <g id="Page-1" stroke="none" stroke-width="1" fill="none" fill-rule="evenodd" sketch:type="MSPage">
        <g id="Logo" sketch:type="MSLayerGroup" fill="#FFFFFF">
            <path d="M0,1.99165754 C0,0.891695454 0.889064278,0 1.99091407,0 L48.0090859,0 C49.1086374,0 50,0.89889206 50,1.99165754 L50,43.0083425 C50,44.1083045 49.1109357,45 48.0090859,45 L1.99091407,45 C0.891362589,45 0,44.1011079 0,43.0083425 L0,1.99165754 Z M39,39.0029293 C39,38.4490268 39.4378814,38 40.0029293,38 L44.9970707,38 C45.5509732,38 46,38.4378814 46,39.0029293 L46,45 L39,45 L39,39.0029293 Z M39,28.0029293 C39,27.4490268 39.4378814,27 40.0029293,27 L44.9970707,27 C45.5509732,27 46,27.4378814 46,28.0029293 L46,32.9970707 C46,33.5509732 45.5621186,34 44.9970707,34 L40.0029293,34 C39.4490268,34 39,33.5621186 39,32.9970707 L39,28.0029293 Z M39,17.0029293 C39,16.4490268 39.4378814,16 40.0029293,16 L44.9970707,16 C45.5509732,16 46,16.4378814 46,17.0029293 L46,21.9970707 C46,22.5509732 45.5621186,23 44.9970707,23 L40.0029293,23 C39.4490268,23 39,22.5621186 39,21.9970707 L39,17.0029293 Z M39,6.00292933 C39,5.44902676 39.4378814,5 40.0029293,5 L44.9970707,5 C45.5509732,5 46,5.43788135 46,6.00292933 L46,10.9970707 C46,11.5509732 45.5621186,12 44.9970707,12 L40.0029293,12 C39.4490268,12 39,11.5621186 39,10.9970707 L39,6.00292933 Z M4,39.0029293 C4,38.4490268 4.43788135,38 5.00292933,38 L9.99707067,38 C10.5509732,38 11,38.4378814 11,39.0029293 L11,45 L4,45 L4,39.0029293 Z M4,28.0029293 C4,27.4490268 4.43788135,27 5.00292933,27 L9.99707067,27 C10.5509732,27 11,27.4378814 11,28.0029293 L11,32.9970707 C11,33.5509732 10.5621186,34 9.99707067,34 L5.00292933,34 C4.44902676,34 4,33.5621186 4,32.9970707 L4,28.0029293 Z M4,17.0029293 C4,16.4490268 4.43788135,16 5.00292933,16 L9.99707067,16 C10.5509732,16 11,16.4378814 11,17.0029293 L11,21.9970707 C11,22.5509732 10.5621186,23 9.99707067,23 L5.00292933,23 C4.44902676,23 4,22.5621186 4,21.9970707 L4,17.0029293 Z M4,6.00292933 C4,5.44902676 4.43788135,5 5.00292933,5 L9.99707067,5 C10.5509732,5 11,5.43788135 11,6.00292933 L11,10.9970707 C11,11.5509732 10.5621186,12 9.99707067,12 L5.00292933,12 C4.44902676,12 4,11.5621186 4,10.9970707 L4,6.00292933 Z" sketch:type="MSShapeGroup"></path>
        </g>
    </g>
</svg>