<?xml version="1.0" encoding="UTF-8" standalone="no"?>
<svg width="40px" height="34px" viewBox="0 0 40 34" version="1.1" xmlns="http://www.w3.org/2000/svg" xmlns:xlink="http://www.w3.org/1999/xlink" xmlns:sketch="http://www.bohemiancoding.com/sketch/ns">
    <!-- Generator: Sketch 3.3 (11970) - http://www.bohemiancoding.com/sketch -->
    <title>logo-40x34</title>
    <desc>Created with Sketch.</desc>
    <defs></defs>
    <g id="Logo" stroke="none" stroke-width="1" fill="none" fill-rule="evenodd" sketch:type="MSPage">
        <g id="40x34" sketch:type="MSLayerGroup" transform="translate(-125.000000, -130.000000)" fill="#FFFFFF">
            <g id="Logo" transform="translate(125.000000, 129.500000)" sketch:type="MSShapeGroup">
                <path d="M8,0.5 L24.004543,0.5 C24.5543187,0.5 25,0.948920205 25,1.50748397 L25,14.492516 C25,15.0489341 25.4489202,15.5 26.007484,15.5 L32,15.5 L32,18.509222 C32,19.0490248 32.4435864,19.5 32.990778,19.5 L37.009222,19.5 C37.5490248,19.5 38,19.0564136 38,18.509222 L38,15.5 L38,15.5 L38.992516,15.5 C39.5489341,15.5 40,15.9509254 40,16.4947712 L40,33.5052288 C40,34.0546258 39.5507812,34.5 38.9912248,34.5 L38,34.5 L38,34.5 L38,31.490778 C38,30.9509752 37.5564136,30.5 37.009222,30.5 L32.990778,30.5 C32.4509752,30.5 32,30.9435864 32,31.490778 L32,34.5 L8,34.5 L8,31.990778 C8,31.4509752 7.55641359,31 7.00922203,31 L2.99077797,31 C2.45097518,31 2,31.4435864 2,31.990778 L2,34.5 L1.00877516,34.5 C0.451644023,34.5 0,34.0450757 0,33.5008579 L0,1.49914214 C0,0.947331172 0.455262884,0.5 0.995457033,0.5 L2,0.5 L2,3.00922203 C2,3.54902482 2.44358641,4 2.99077797,4 L7.00922203,4 C7.54902482,4 8,3.55641359 8,3.00922203 L8,0.5 Z M2,6.99077797 C2,6.44358641 2.45097518,6 2.99077797,6 L7.00922203,6 C7.55641359,6 8,6.45097518 8,6.99077797 L8,11.009222 C8,11.5564136 7.54902482,12 7.00922203,12 L2.99077797,12 C2.44358641,12 2,11.5490248 2,11.009222 L2,6.99077797 Z M2,14.990778 C2,14.4435864 2.45097518,14 2.99077797,14 L7.00922203,14 C7.55641359,14 8,14.4509752 8,14.990778 L8,19.009222 C8,19.5564136 7.54902482,20 7.00922203,20 L2.99077797,20 C2.44358641,20 2,19.5490248 2,19.009222 L2,14.990778 Z M2,22.990778 C2,22.4435864 2.45097518,22 2.99077797,22 L7.00922203,22 C7.55641359,22 8,22.4509752 8,22.990778 L8,27.009222 C8,27.5564136 7.54902482,28 7.00922203,28 L2.99077797,28 C2.44358641,28 2,27.5490248 2,27.009222 L2,22.990778 Z M32,22.490778 C32,21.9435864 32.4509752,21.5 32.990778,21.5 L37.009222,21.5 C37.5564136,21.5 38,21.9509752 38,22.490778 L38,26.509222 C38,27.0564136 37.5490248,27.5 37.009222,27.5 L32.990778,27.5 C32.4435864,27.5 32,27.0490248 32,26.509222 L32,22.490778 Z" id="Rectangle-2"></path>
                <path d="M31.1213204,4.62132032 L27.7081685,1.20816852 C27.3213501,0.821350115 27,0.947044743 27,1.49850235 L27,12.5014977 C27,13.0525106 27.4470447,13.5 27.9985023,13.5 L39.0014977,13.4999998 C39.5525106,13.4999998 39.6829422,13.182942 39.2918315,12.7918313 L35.3639611,8.86396097 L33.9432265,10.2846956 C33.5563036,10.6716184 32.9237531,10.6663938 32.5420549,10.2846956 L29.7005858,7.44322651 C29.313663,7.05630364 29.3188876,6.42375308 29.7005858,6.04205487 L31.1213204,4.62132032 Z" id="Rectangle-3"></path>
            </g>
        </g>
    </g>
</svg>