<?xml version="1.0" encoding="UTF-8" standalone="no"?>
<svg width="50px" height="42px" viewBox="0 0 50 42" version="1.1" xmlns="http://www.w3.org/2000/svg" xmlns:xlink="http://www.w3.org/1999/xlink" xmlns:sketch="http://www.bohemiancoding.com/sketch/ns">
    <!-- Generator: Sketch 3.3 (11970) - http://www.bohemiancoding.com/sketch -->
    <title>logo-50x42</title>
    <desc>Created with Sketch.</desc>
    <defs></defs>
    <g id="Logo" stroke="none" stroke-width="1" fill="none" fill-rule="evenodd" sketch:type="MSPage">
        <g id="50x42-flat" sketch:type="MSLayerGroup" transform="translate(-125.000000, -131.000000)" fill="#FFFFFF">
            <g id="Logo" transform="translate(125.000000, 129.500000)" sketch:type="MSShapeGroup">
                <path d="M40,43.5 L10,43.5 L10,39.5029293 C10,38.9378814 9.55097324,38.5 8.99707067,38.5 L4.00292933,38.5 C3.43788135,38.5 3,38.9490268 3,39.5029293 L3,43.5 L1.99091407,43.5 C0.891362589,43.5 0,42.6033397 0,41.5025078 L0,3.49749218 C0,2.39430771 0.894337654,1.5 1.99821383,1.5 L3,1.5 L3,2.49707067 C3,3.06211865 3.44902676,3.5 4.00292933,3.5 L8.99707067,3.5 C9.56211865,3.5 10,3.05097324 10,2.49707067 L10,1.5 L10,1.5 L29.0017862,1.5 C30.1053692,1.5 31,2.3926228 31,3.49508929 L31,17.5049107 C31,18.6067681 31.8909254,19.5 32.9974219,19.5 L40.0000041,19.5 L40.0000041,19.5 C40.0000014,19.5009761 40,19.5019526 40,19.5029293 L40,24.4970707 C40,25.0621186 40.4490268,25.5 41.0029293,25.5 L45.9970707,25.5 C46.5621186,25.5 47,25.0509732 47,24.4970707 L47,19.5029293 C47,19.5019525 46.9999987,19.5009761 46.999996,19.5 L48.0025781,19.5 C49.1057238,19.5 50,20.3970262 50,21.5049466 L50,41.4950534 C50,42.6023548 49.1109357,43.5 48.0090859,43.5 L47,43.5 L47,39.5029293 C47,38.9378814 46.5509732,38.5 45.9970707,38.5 L41.0029293,38.5 C40.4378814,38.5 40,38.9490268 40,39.5029293 L40,43.5 Z M3,7.50292933 C3,6.94902676 3.43788135,6.5 4.00292933,6.5 L8.99707067,6.5 C9.55097324,6.5 10,6.93788135 10,7.50292933 L10,12.4970707 C10,13.0509732 9.56211865,13.5 8.99707067,13.5 L4.00292933,13.5 C3.44902676,13.5 3,13.0621186 3,12.4970707 L3,7.50292933 Z M3,18.5029293 C3,17.9490268 3.43788135,17.5 4.00292933,17.5 L8.99707067,17.5 C9.55097324,17.5 10,17.9378814 10,18.5029293 L10,23.4970707 C10,24.0509732 9.56211865,24.5 8.99707067,24.5 L4.00292933,24.5 C3.44902676,24.5 3,24.0621186 3,23.4970707 L3,18.5029293 Z M3,28.5029293 C3,27.9490268 3.43788135,27.5 4.00292933,27.5 L8.99707067,27.5 C9.55097324,27.5 10,27.9378814 10,28.5029293 L10,33.4970707 C10,34.0509732 9.56211865,34.5 8.99707067,34.5 L4.00292933,34.5 C3.44902676,34.5 3,34.0621186 3,33.4970707 L3,28.5029293 Z M40,29.5029293 C40,28.9490268 40.4378814,28.5 41.0029293,28.5 L45.9970707,28.5 C46.5509732,28.5 47,28.9378814 47,29.5029293 L47,34.4970707 C47,35.0509732 46.5621186,35.5 45.9970707,35.5 L41.0029293,35.5 C40.4490268,35.5 40,35.0621186 40,34.4970707 L40,29.5029293 Z" id="Film"></path>
                <path d="M39.1274776,6.31539018 L34.462089,1.93566605 C33.6550918,1.17808181 33,1.45955393 33,2.56538386 L33,14.4977178 C33,15.5975008 33.8942334,16.5 34.9973262,16.5 L47.9790452,16.5 C49.0875501,16.5 49.3217719,15.8854819 48.5142825,15.1274356 L44.2134113,11.0899092 L41.6384188,13.6649017 C41.2472949,14.0560256 40.6067405,14.0496082 40.2238452,13.6667129 L36.7063812,10.149249 C36.3162577,9.75912539 36.3167178,9.12614992 36.7081924,8.73467531 L39.1274776,6.31539018 Z" id="Fold"></path>
            </g>
        </g>
    </g>
</svg>