<?xml version="1.0" encoding="UTF-8" standalone="no"?>
<svg width="50px" height="42px" viewBox="0 0 50 42" version="1.1" xmlns="http://www.w3.org/2000/svg" xmlns:xlink="http://www.w3.org/1999/xlink" xmlns:sketch="http://www.bohemiancoding.com/sketch/ns">
    <!-- Generator: Sketch 3.3 (11970) - http://www.bohemiancoding.com/sketch -->
    <title>logo-50x42</title>
    <desc>Created with Sketch.</desc>
    <defs></defs>
    <g id="Logo" stroke="none" stroke-width="1" fill="none" fill-rule="evenodd" sketch:type="MSPage">
        <g id="50x42-FLAT" sketch:type="MSLayerGroup" transform="translate(-125.000000, -76.000000)" fill="#FFFFFF">
            <g id="Logo" transform="translate(125.000000, 76.000000)" sketch:type="MSShapeGroup">
                <path d="M39.0256531,6.0245994 L34.4187318,1.4099939 C33.6347499,0.624704364 33,0.884958713 33,1.99030839 L33,14.9985874 C33,16.1093602 33.8945709,17 34.9980799,17 L47.9846978,17 C49.093621,17 49.3475899,16.3637526 48.564046,15.5789018 L43.9712761,10.9784714 L42.2091781,12.7405693 C41.8175099,13.1322376 41.1903711,13.1401186 40.7908219,12.7405693 L37.2594307,9.20917813 C36.8677624,8.81750986 36.8598814,8.19037113 37.2594307,7.79082187 L39.0256531,6.0245994 Z M40,19 L32.9974219,19 C31.8909254,19 31,18.1057238 31,17.0025781 L31,1.99742191 C31,0.890925393 30.1053692,0 29.0017862,0 L1.99821383,0 C0.894337654,0 0,0.894307712 0,1.99749218 L0,40.0025078 C0,41.1033397 0.891362589,42 1.99091407,42 L48.0090859,42 C49.1109357,42 50,41.1041826 50,39.9991358 L50,21.0008642 C50,19.9016273 49.1057238,19 48.0025781,19 L47,19 L47,22.9970707 C47,23.5509732 46.5621186,24 45.9970707,24 L41.0029293,24 C40.4490268,24 40,23.5621186 40,22.9970707 L40,19 L40,19 Z M3,8.00292933 C3,7.44902676 3.43788135,7 4.00292933,7 L8.99707067,7 C9.55097324,7 10,7.43788135 10,8.00292933 L10,12.9970707 C10,13.5509732 9.56211865,14 8.99707067,14 L4.00292933,14 C3.44902676,14 3,13.5621186 3,12.9970707 L3,8.00292933 Z M3,18.0029293 C3,17.4490268 3.43788135,17 4.00292933,17 L8.99707067,17 C9.55097324,17 10,17.4378814 10,18.0029293 L10,22.9970707 C10,23.5509732 9.56211865,24 8.99707067,24 L4.00292933,24 C3.44902676,24 3,23.5621186 3,22.9970707 L3,18.0029293 Z M3,28.0029293 C3,27.4490268 3.43788135,27 4.00292933,27 L8.99707067,27 C9.55097324,27 10,27.4378814 10,28.0029293 L10,32.9970707 C10,33.5509732 9.56211865,34 8.99707067,34 L4.00292933,34 C3.44902676,34 3,33.5621186 3,32.9970707 L3,28.0029293 Z M3,37.9998075 C3,37.4476291 3.43788135,37 4.00292933,37 L8.99707067,37 C9.55097324,37 10,37.4437166 10,37.9998075 L10,42 L3,42 L3,37.9998075 Z M3,0 L10,0 L10,2.9906311 C10,3.54809015 9.56211865,4 8.99707067,4 L4.00292933,4 C3.44902676,4 3,3.55664682 3,2.9906311 L3,0 Z M40,28.0029293 C40,27.4490268 40.4378814,27 41.0029293,27 L45.9970707,27 C46.5509732,27 47,27.4378814 47,28.0029293 L47,32.9970707 C47,33.5509732 46.5621186,34 45.9970707,34 L41.0029293,34 C40.4490268,34 40,33.5621186 40,32.9970707 L40,28.0029293 Z M40,37.9998075 C40,37.4476291 40.4378814,37 41.0029293,37 L45.9970707,37 C46.5509732,37 47,37.4437166 47,37.9998075 L47,42 L40,42 L40,37.9998075 Z" id="logo"></path>
            </g>
        </g>
    </g>
</svg>