<?xml version="1.0" standalone="no"?>
<!DOCTYPE svg PUBLIC "-//W3C//DTD SVG 1.1//EN" "http://www.w3.org/Graphics/SVG/1.1/DTD/svg11.dtd" >
<svg xmlns="http://www.w3.org/2000/svg" xmlns:xlink="http://www.w3.org/1999/xlink" version="1.1">
<metadata></metadata>
<defs>
<font id="geared_slabregular" horiz-adv-x="768" >
<font-face units-per-em="2048" ascent="1536" descent="-512" />
<missing-glyph horiz-adv-x="512" />
<glyph horiz-adv-x="0" />
<glyph unicode="&#xd;" horiz-adv-x="512" />
<glyph unicode=" "  horiz-adv-x="512" />
<glyph unicode="&#x09;" horiz-adv-x="512" />
<glyph unicode="&#xa0;" horiz-adv-x="512" />
<glyph unicode="1" horiz-adv-x="528" d="M39 1325q0 -62 43 -92q30 -21 59 -21h49q25 0 25 -20v-1002q0 -5 -0.5 -9t-2 -7t-2 -5t-3.5 -4.5t-3.5 -3.5t-4 -4t-4.5 -3q-50 -35 -50 -93v-61h342v61q0 59 -49 93q-20 16 -20 43l-2 1339h-111q-50 0 -69 -57q-45 -103 -197 -113v-41z" />
<glyph unicode="2" horiz-adv-x="786" d="M39 1190q0 -49 24.5 -79t90.5 -30h86v150q0 77 45 110q36 27 100 27q62 0 98 -27q47 -35 47 -110v-213q0 -43 -20 -76q-35 -58 -131 -127q-56 -45 -90 -74q-21 -18 -90 -73q-43 -35 -80 -78q-78 -91 -78 -207v-270q0 -39 27 -74q27 -39 82 -39h544q22 0 35.5 11.5 t16 21.5t2.5 18v219h-70q-67 0 -105 -67q-6 -21 -26 -21h-256q-49 0 -49 54v137q0 45 14 73q12 28 38 53t71 60q21 15 84 70q40 35 96 78q57 44 92 84q96 103 96 219v231q0 153 -100 234q-95 77 -248 77q-154 0 -246 -77q-100 -84 -100 -234v-51z" />
<glyph unicode="3" horiz-adv-x="829" d="M59 287q4 -149 100.5 -226t254.5 -77q154 0 254 77q102 83 102 234v256q0 95 -35 170q-43 84 -104 84q63 0 102 84q33 70 33 172v184q0 153 -100 234q-95 77 -252 77q-154 0 -246 -69q-104 -81 -107 -219h-2v-176h91q62 0 92 47q18 32 18 67v31q0 75 49 109q38 26 105 26 t102 -26q47 -35 47 -111v-199q0 -71 -44 -114t-111 -43h-103q-19 0 -22 -15q-4 -8 -2 -12v-117q0 -26 28 -26h105q65 0 109 -44t44 -114v-246q0 -76 -49 -108q-45 -29 -104 -29q-151 0 -154 131v49q0 36 -18 68q-30 47 -92 47h-91v-176z" />
<glyph unicode="4" horiz-adv-x="843" d="M45 399q0 -28 13.5 -41.5t35.5 -13.5h377q12 0 12 -12v-135q0 -27 -20 -43q-49 -34 -49 -93v-61h342v61q0 59 -49 93q-12 7 -16.5 15t-4.5 30v133q0 12 12 12h86v64q0 64 -32 92q-20 18 -56 18q-10 0 -10 14v961q0 27 -13.5 35t-41.5 8h-135q-29 0 -50 -6q-5 -2 -9.5 -5 t-8.5 -6t-7.5 -10t-6.5 -12t-7 -16.5t-7.5 -20t-9.5 -25.5t-11 -30q-24 -61 -62 -164q-26 -66 -77 -209l-80 -215q-46 -120 -68 -184q-37 -99 -41 -113q-6 -16 -6 -33v-88zM242 521.5q-1 3.5 4 15.5q1 3 2 5t2 6t2 7q3 8 10.5 29t11.5 32l62 183q72 208 92 264l49 158 q0 6 3 7t3 -11v-685q0 -14 -14 -14h-217q-9 0 -10 3.5z" />
<glyph unicode="5" horiz-adv-x="813" d="M59 295q0 -153 97 -234q89 -77 247 -77q160 0 252 77q99 80 99 234v424q0 132 -66 219q-69 92 -207 92h-2q-48 0 -99 -17t-83 -46q-5 -6 -12 -5t-6 13l6 86q9 154 12 203q2 27 2 49q0 21 6 29t25 8h182q34 0 47 -27q32 -57 100 -57h68v192q0 78 -86 78h-434 q-44 0 -70 -33q-9 -10 -14.5 -22t-9 -19.5t-5.5 -23.5t-2.5 -21t-1 -26.5t-0.5 -26.5q-1 -16 -2 -51t-2 -53l-6 -130q-7 -160 -12 -243q-4 -70 -4 -76q0 -64 47 -88q30 -18 74 -18h77v10q0 64 42.5 102.5t99.5 38.5t95 -37.5t38 -103.5v-412q0 -75 -45 -108 q-39 -29 -103 -29q-143 0 -143 137v45q0 17 -2 31q-8 49 -45 72q-10 6 -26.5 10.5t-26.5 5.5l-30 3l-21 1h-29h-14l-7 -131v-45z" />
<glyph unicode="6" horiz-adv-x="811" d="M59 293q0 -151 99 -234q92 -77 248 -77q157 0 249 77q97 81 97 234v317q0 159 -79 245.5t-222 86.5q-48 0 -97 -18q-47 -17 -78 -52q-4 -6 -9 -3.5t-5 10.5v354q0 137 141 137q140 0 140 -137v-12q0 -7 2 -11v-10q0 -32 20 -63q30 -47 92 -47h86v153q0 154 -90.5 232.5 t-249.5 78.5q-158 0 -247 -77q-97 -84 -97 -234v-950zM262 303v297q0 78 41.5 119t102.5 41t102 -41t41 -119v-297q0 -137 -143 -137q-144 0 -144 137z" />
<glyph unicode="7" horiz-adv-x="806" d="M49 1327q0 -32 21 -65q27 -48 88 -48h90v86q0 24 14 38t37 14h250q7 0 12 -4t0 -13q-132 -183 -209 -467q-74 -260 -96 -589l-2 -29q-2 -10 -2 -29q0 -18 -2 -28q-7 -14 -21 -25q-47 -33 -47 -92v-76h344v76q0 65 -45 92q-24 14 -26 43q12 347 81.5 613.5t206.5 463.5 q15 15 15 45v156q0 22 -14 34.5t-35 12.5h-574q-39 0 -62.5 -19.5t-23.5 -58.5v-131z" />
<glyph unicode="8" horiz-adv-x="798" d="M59 291q0 -156 90.5 -233.5t251.5 -77.5q340 0 340 311v248q0 79 -28.5 143t-79.5 96q-6 3 -6 19q0 13 8 16q44 37 71 92.5t27 118.5v217q0 155 -87 233t-245 78q-157 0 -244 -78t-87 -233v-217q0 -127 96 -209q8 -5 8 -18q0 -16 -8 -19q-51 -35 -79 -98t-28 -141v-248z M262 301v248q0 78 39 118t100 40q60 0 99 -40t39 -118v-248q0 -137 -138 -137q-139 0 -139 137zM270 1016v215q0 77 34 107t97 30q61 0 95 -30.5t34 -106.5v-215q0 -79 -35.5 -118.5t-93.5 -39.5q-60 0 -95.5 39.5t-35.5 118.5z" />
<glyph unicode="9" d="M39 926q0 -160 77.5 -246t223.5 -86q44 0 95 18.5t75 46.5q4 6 10 3t6 -13v-346q0 -137 -141 -137q-131 0 -139 127v33q0 31 -19 65q-30 47 -92 47h-84l-6 2v-166h2q6 -144 96.5 -218t241.5 -74q158 0 251 79t93 232v950q0 154 -96 234q-92 77 -250 77q-154 0 -246 -77 q-98 -82 -98 -234v-317zM242 934v299q0 137 141 137q143 0 143 -137v-299q0 -78 -41 -119t-102 -41q-60 0 -100.5 41t-40.5 119z" />
<glyph unicode="A" horiz-adv-x="985" d="M39 0h342v55q0 65 -45 92q-19 14 -19 43q1 14 4.5 38t4.5 34l6 55v10v10.5t0.5 10t1 10.5t2 9t3.5 9t5 7t6.5 5.5t9 3t11.5 1.5h233q40 0 47 -41q0 -3 4 -35q1 -9 4.5 -27.5t4.5 -27.5q8 -47 10 -72q0 -25 -25 -43q-45 -27 -45 -92v-55h342v57q0 33 -14 59t-33 38 q-24 17 -31 43q-22 127 -58 333.5t-48 272.5l-74 426q-5 28 -14 76.5t-12 68.5q-2 16 -5 32t-4.5 23.5t-1.5 10.5q-5 39 -34 65.5t-74 26.5h-275v-47q0 -89 51 -109q11 -4 11 -16q0 -21 -2 -31q0 -1 -9 -51l-24 -129q-3 -16 -15.5 -78.5t-19.5 -101.5q-16 -91 -39 -209 l-104 -563q-7 -26 -31 -43q-19 -11 -33 -39.5t-14 -61.5v-53zM368 590.5q0 5.5 7 40.5q2 28 12 84q15 88 19 116q5 38 22 132l61 356h5l61 -356q21 -120 23 -132q5 -32 16.5 -104t15.5 -96l6 -35q2 -12 -6.5 -22.5t-21.5 -10.5h-193q-10 0 -20 10q-7 12 -7 17.5z" />
<glyph unicode="B" horiz-adv-x="878" d="M39 0h434q167 0 246.5 87.5t79.5 246.5v223q0 149 -99 223q-14 8 -14 23q0 12 10 22q82 76 82 197v180q0 330 -325 330h-414v-53q0 -89 45 -109q25 -16 25 -43v-1124q0 -33 -27 -45q-43 -22 -43 -97v-61zM311 197v479q0 29 29 29h133q125 0 125 -158v-221 q0 -158 -125 -158h-133q-29 0 -29 29zM311 901v424q0 13 8 22t21 9h113q62 0 93.5 -42t31.5 -116v-168q0 -74 -31.5 -115t-93.5 -41h-115q-27 0 -27 27z" />
<glyph unicode="C" horiz-adv-x="831" d="M59 295q0 -150 101 -234q90 -75 250 -75q165 0 256 65q106 75 106 223v172h-92q-53 0 -82 -32t-29 -82v-35q0 -59 -51 -100q-47 -41 -108 -41q-59 0 -103.5 40t-44.5 101v936q0 76 45 113.5t109 37.5t108.5 -37.5t44.5 -113.5v-29q0 -50 32 -81t83 -31h88v153 q0 151 -102 234q-98 73 -254 73q-160 0 -254 -73q-103 -83 -103 -234v-950z" />
<glyph unicode="D" horiz-adv-x="866" d="M39 0h440q168 0 248 88t80 246v866q0 160 -76 242q-84 90 -252 90h-440v-59q0 -75 43 -97q27 -12 27 -45v-1130q0 -27 -25 -43q-45 -23 -45 -103v-55zM309 197v1136q0 11 8 20t21 9h141q125 0 125 -158v-878q0 -158 -125 -158h-147q-10 0 -16.5 9t-6.5 20z" />
<glyph unicode="E" horiz-adv-x="811" d="M39 0h649q23 0 38 14t15 37v211h-77q-47 0 -75 -18.5t-28 -50.5q0 -27 -22 -27h-205q-25 0 -25 29v477q0 28 31 28h246q30 0 30 29v115q0 30 -32 30h-244q-31 0 -31 29v428q0 12 9 21.5t20 9.5h197q28 0 28 -35q0 -57 103 -57h75v217q0 18 -14.5 31.5t-38.5 13.5h-649 v-59q0 -75 43 -97q27 -15 27 -45v-1132q0 -28 -27 -43q-43 -22 -43 -103v-53z" />
<glyph unicode="F" horiz-adv-x="780" d="M39 0h340v59q0 60 -47 93q-23 16 -23 45v448q0 13 9.5 22t21.5 9h250q26 0 26 29v108q0 31 -28 31h-248q-18 0 -24.5 6t-6.5 24v455q0 13 9.5 22t21.5 9h186q47 0 47 -29q0 -31 28 -48t73 -17h67v215q0 23 -17 37t-36 14h-649v-55q0 -80 45 -103q25 -9 25 -43v-1134 q0 -24 -21 -45q-49 -34 -49 -93v-59z" />
<glyph unicode="G" horiz-adv-x="829" d="M59 293q0 -154 87.5 -231.5t238.5 -77.5q65 0 133 12q77 14 113 35q13 8 23.5 10t24 -6.5t26.5 -30.5q5 -14 22 -14h18q25 0 25 20v725q0 27 -16.5 38t-34.5 11h-244v-49q0 -54 14.5 -78t45.5 -30q32 -8 32 -49v-275q0 -75 -51 -113q-45 -34 -108 -34t-104.5 35.5 t-41.5 111.5v932q0 76 41.5 111.5t104.5 35.5q65 0 108 -32q51 -41 51 -115v-41q0 -41 45 -66q34 -24 68 -24h90v139q0 152 -106 234q-98 73 -256 73q-159 0 -250 -73q-99 -83 -99 -234v-950z" />
<glyph unicode="H" horiz-adv-x="964" d="M59 0h340v61q0 59 -49 93q-20 16 -20 43v485q0 31 30 31h244q29 0 29 -29v-487q0 -31 -21 -43q-49 -34 -49 -93v-61h342v61q0 59 -49 93q-20 11 -20 43v1138q0 31 20 45q49 34 49 93v59h-342v-59q0 -59 49 -93q21 -15 21 -45v-422q0 -12 -8 -21t-21 -9h-244q-30 0 -30 30 v422q0 25 20 45q49 34 49 93v59h-340v-59q0 -60 47 -93q23 -16 23 -45v-1138q0 -30 -23 -43q-47 -33 -47 -93v-61z" />
<glyph unicode="I" horiz-adv-x="419" d="M39 0h342v61q0 59 -49 93q-21 17 -21 41v1138q0 30 21 45q49 34 49 92v60h-342v-60q0 -58 49 -92q21 -15 21 -45v-1138q0 -29 -21 -41q-49 -33 -49 -93v-61z" />
<glyph unicode="J" horiz-adv-x="841" d="M59 295q0 -156 103 -232q93 -75 252 -75q158 0 245 75q95 79 95 232v520v193q0 117 2 166v120v47q0 26 20 37q47 33 47 92v62h-340v-62q0 -58 49 -92l4 -4q5 -3 5.5 -3.5t3.5 -4t4 -6t2.5 -7t1.5 -10.5v-1038q0 -77 -39 -113t-100 -36q-64 0 -109 36.5t-45 112.5v33 q0 41 -20 72q-27 39 -93 39h-88v-154z" />
<glyph unicode="K" horiz-adv-x="903" d="M39 0h340v59q0 59 -49 93q-21 15 -21 41v350l33 63q22 -44 62 -123.5t57 -115.5l45 -93q4 -8 43 -84q13 -30 35 -69l8 -16t7.5 -15.5t4.5 -9.5q29 -52 53 -66q22 -14 72 -14h135v78q0 44 -12.5 64t-38.5 32q-22 7 -32 15t-21 26l-144 281q-9 18 -26.5 52.5t-26.5 51.5 q-8 16 -24 47t-23 45q-19 37 -33 68q-14 22 -14 28q-8 24 2 46q4 10 15 30.5t29.5 55.5t31.5 61q41 75 55 104q14 25 48 90t48 89q4 9 9 17t8 13t4 6q15 25 18 29q5 10 23 21q69 31 69 100v80h-129q-35 0 -55 -14q-43 -25 -65 -74l-273 -492v385q0 29 21 41q49 34 49 92v62 h-338v-62q0 -58 49 -92q19 -15 21 -39v-1144q-1 -12 -5 -20.5t-5.5 -10l-10.5 -10.5q-49 -34 -49 -93v-59z" />
<glyph unicode="L" horiz-adv-x="790" d="M39 0h653q19 0 34 15t15 38v223h-86q-51 0 -78.5 -15.5t-27.5 -59.5q0 -13 -8 -24t-21 -11h-180q-27 0 -27 41l-2 1126q0 22 4.5 30t16.5 15q49 34 49 92v62h-342v-62q0 -58 49 -92q9 -5 13 -8.5t7 -12.5t3 -24v-1130q0 -27 -29 -39q-43 -22 -43 -103v-61z" />
<glyph unicode="M" horiz-adv-x="1337" d="M39 0h342v61q0 59 -49 93q-21 12 -21 43v839q0 8 4 8l4 -4q126 -232 134 -247q33 -64 51 -95q17 -33 44.5 -83t35.5 -66q4 -9 16 -33q14 -27 70 -27q54 0 67 29q12 24 17 33l34 65q49 94 97 179q51 97 135 245q3 6 6.5 7.5t5.5 -1.5t2 -6v-837q0 -30 -22 -43 q-49 -34 -49 -92v-68h335v66q0 62 -49 96q-22 13 -22 43v1153q22 8 35 20q34 34 34 90v64h-196q-37 0 -49 -31l-185 -352l-67 -129q-51 -96 -60 -115l-43 -82q-18 -30 -18 -32q-12 -16 -19 0q-7 7 -26 49q-7 13 -27 50t-33 62q-80 147 -159 308q-104 211 -115 241 q-6 13 -19.5 22t-25.5 9h-213v-64q0 -32 10 -55q21 -43 60 -55v-1161q0 -30 -23 -43q-49 -34 -49 -93v-61z" />
<glyph unicode="N" horiz-adv-x="917" d="M39 0h319v61q0 60 -47 93q-8 5 -12 8.5t-7 12.5t-3 24v776q0 11 2 10q2 0 4 -6q0 -5 20 -66q36 -109 52 -161l67 -209q37 -121 68 -211q11 -37 29 -94l24 -76q3 -9 27 -82q9 -30 14 -43.5t16.5 -25t28.5 -11.5h119q23 0 36 15.5t13 37.5v1284q2 25 20 43q50 35 50 93v59 h-320v-59q0 -59 49 -93q21 -21 21 -45v-811l-2 -2l-6 8q-7 22 -33 107q-54 180 -56 186l-135 434q-8 26 -25.5 82t-25.5 80q-20 61 -20 70q-13 43 -56 43h-231v-68q0 -32 10 -55q20 -42 60 -57v-1155q0 -26 -21 -43q-49 -34 -49 -93v-61z" />
<glyph unicode="O" horiz-adv-x="837" d="M59 291q0 -153 105 -234q97 -75 256 -75t256 75q102 83 102 234v950q0 151 -102 234q-98 73 -256 73t-256 -73q-105 -81 -105 -234v-950zM260 299v934q0 74 51 115q43 32 109 32q63 0 106 -32q52 -42 52 -115v-934q0 -74 -52 -113q-42 -34 -106 -34q-67 0 -109 34 q-51 38 -51 113z" />
<glyph unicode="P" horiz-adv-x="854" d="M39 1481q0 -74 49 -103q27 -15 27 -45v-1136q0 -30 -21 -45q-49 -34 -49 -93v-59h342v59q0 59 -49 93q-21 15 -21 45v426q0 24 29 24h133q326 0 326 328v223q0 334 -326 334h-440v-51zM317 848v483q0 13 10 21t23 8h129q61 0 92 -42t31 -116v-225q0 -74 -31 -116t-92 -42 h-135q-27 0 -27 29z" />
<glyph unicode="Q" horiz-adv-x="851" d="M59 291q0 -154 103 -234q93 -75 252 -75q11 0 18 -1t13 -4.5t6.5 -4l7.5 -7.5q34 -34 114 -69q98 -43 220 -43v88q0 24 -9 39q-14 26 -47 47q-39 17 -41 18q-6 0 -8 2q-18 11 0 29q82 74 82 215v950q0 151 -102 234q-94 73 -254 73q-158 0 -252 -73q-103 -80 -103 -234 v-950zM260 303v924q0 76 46 114.5t108 38.5q63 0 108 -38.5t45 -114.5v-924q0 -76 -44.5 -113.5t-108.5 -37.5q-63 0 -105 34q-49 40 -49 117z" />
<glyph unicode="R" horiz-adv-x="901" d="M39 0h340v59q0 59 -49 93q-21 21 -21 45v428q0 28 27 28h127q125 0 125 -151v-402q0 -46 26 -73t78 -27h170v80q0 23 -8 39.5t-16 23t-23 15.5q-1 1 -5.5 3t-5.5 3t-4 3.5t-4 4.5t-2.5 5.5t-2 7.5t-0.5 10v301q0 164 -93 233q-22 23 -4 41q97 80 97 209v211 q0 161 -76 246q-86 96 -252 96h-422v-59q0 -70 47 -99q21 -13 21 -39v-1138q0 -24 -21 -45q-49 -34 -49 -93v-59zM309 844v487q0 29 33 29h121q125 0 125 -156v-225q0 -158 -125 -158h-129q-8 0 -16.5 6.5t-8.5 16.5z" />
<glyph unicode="S" horiz-adv-x="864" d="M59 291q0 -152 111 -232q97 -75 260 -75q162 0 262 75q113 81 113 232v201q0 83 -39 145q-68 112 -221 209q-67 39 -127 80q-66 42 -100.5 77.5t-34.5 73.5v203q0 44 51 70q47 24 94 24q53 0 94 -20q49 -27 49 -74v-76q0 -49 35 -81.5t86 -32.5h92v151q0 153 -100 234 q-101 75 -254 75q-159 0 -250 -71q-100 -81 -100 -238v-145q0 -90 39 -146q61 -102 219 -188q111 -70 123 -78q133 -89 133 -203v-217q0 -51 -55 -84q-58 -35 -109 -35q-53 0 -106 31q-56 31 -56 82v88q0 98 -110 98h-99v-153z" />
<glyph unicode="T" horiz-adv-x="935" d="M39 1266h94q48 0 67 16.5t19 52.5q0 15 10 22t21 7h90q11 0 21 -8t10 -21v-1138q0 -24 -21 -45q-49 -34 -49 -93v-59h340v59q0 60 -47 93q-23 16 -23 45v1132q0 35 31 35h100q23 0 23 -27q0 -33 16 -52t45 -19h111v176q0 52 -18.5 73t-67.5 21h-668q-55 0 -79.5 -19.5 t-24.5 -66.5v-184z" />
<glyph unicode="U" horiz-adv-x="927" d="M39 1470q0 -58 49 -92q21 -12 21 -43v-1040q0 -155 104 -232q97 -75 256 -75q157 0 254 75q102 79 102 232v1046q2 22 21 37q43 30 43 92v62h-336v-62q0 -58 49 -92l4 -3q4 -3 4.5 -4t3.5 -3.5t4 -4.5t2.5 -5.5t2 -7.5t0.5 -9v-1030q0 -74 -46.5 -114.5t-107.5 -40.5 q-63 0 -110.5 40.5t-47.5 114.5v1024q0 31 21 43q55 38 55 92v62h-348v-62z" />
<glyph unicode="V" horiz-adv-x="964" d="M39 1468q0 -63 45 -90q18 -13 25 -45q0 -12 14 -86l37 -203q34 -200 47 -270q20 -111 51 -287l76 -436q6 -51 57 -51h221q19 0 31 14t14 33l11 62q2 11 9 62.5t13 86.5q11 86 66 440q8 55 94 635q7 28 31 45q45 27 45 90v62h-334v-62q0 -57 43 -90q18 -13 18 -45 q-54 -394 -80 -569l-30 -209q-1 -6 -47 -311q-9 -49 -11 -49q-2 16 -8 49q-3 17 -20 129q-6 33 -64 391q-12 74 -26 164t-32 209.5t-30 195.5q-4 18 0.5 27t16.5 18q43 26 43 90v62h-326v-62z" />
<glyph unicode="W" horiz-adv-x="1542" d="M39 1470q0 -63 45 -90q24 -17 31 -45q68 -597 73 -635q3 -25 13 -108t16 -127q13 -129 43 -354l6 -62q2 -19 14 -33t31 -14h232q22 0 34 11.5t23 39.5l174 998l170 -998q11 -28 23 -39.5t34 -11.5h230q19 0 31 14t14 33q0 10 8 62q4 39 19 159.5t24 194.5q13 120 27 235 q5 38 73 635q7 28 31 45q45 27 45 90v62h-334v-62q0 -57 43 -90q19 -14 19 -45q-12 -114 -34 -304t-30 -265q-28 -250 -47 -391l-16 -129q-6 -49 -8 -49l-13 75q-21 131 -73 459l-49 289q-70 398 -84 457q-4 22 -37 36.5t-70 14.5q-36 0 -67 -12.5t-37 -36.5 q-18 -83 -37 -189q-61 -342 -94 -555l-43 -266q-20 -116 -33 -197l-13 -75q-2 0 -8 49q-4 20 -16 129l-23 182q-14 119 -24 209q-8 75 -30 265t-34 304q0 31 19 45q43 33 43 90v62h-334v-62z" />
<glyph unicode="X" horiz-adv-x="901" d="M39 0h342v63q0 58 -47 91q-15 14 -8 36l53 181q21 79 55 180q0 6 3 16.5t5 10.5q4 0 7.5 -11.5t3.5 -19.5l12 -33q4 -12 14.5 -39t16.5 -43q11 -37 36 -106l68 -193q9 -34 12 -37q25 -64 41 -78q16 -18 70 -18h139v49q0 48 -7.5 73.5t-29.5 35.5q-22 7 -31 17t-14 28 l-217 551q-2 2 -2 8v12q0 13 4 25l197 536q3 11 8 19t9 11.5t10.5 8t7.5 4.5q45 27 45 90v62h-328v-62q0 -55 45 -90q11 -10 8 -18q-2 -6 -2 -19l-104 -317q-5 -35 -15 -35q-7 0 -10 17l-4 16q-12 36 -33 99.5t-30 92.5l-25 74q-1 4 -20 66l-17 53q-8 19 -8 27 q-15 53 -33.5 74.5t-62.5 21.5h-156v-47q0 -89 51 -109q22 -10 25 -18t14 -27l182 -532q0 -4 5 -19v-8v-8q-5 -15 -5 -21l-194 -548q-8 -20 -23 -27l-18 -12q-45 -27 -45 -91v-63z" />
<glyph unicode="Y" horiz-adv-x="917" d="M39 1468q0 -61 47 -90l6 -4q5 -4 8 -8q11 -11 13 -20q0 -2 12 -37q3 -12 12.5 -41.5t14.5 -46.5q7 -21 35 -114t46 -146q9 -30 51.5 -162t67.5 -213v-391q0 -30 -20 -41q-49 -34 -49 -93v-61h342v61q0 58 -50 93q-20 11 -20 43v389q25 80 67.5 210t51.5 158q19 55 50 154 t32 104q12 42 28 88q9 35 13 39q3 15 16 25l21 14q45 27 45 90v62h-334v-62q0 -63 45 -90q3 -3 10 -8t10 -8q2 -2 3.5 -4t2.5 -4t1 -4.5t-0.5 -5t-1.5 -6.5t-2 -7t-3.5 -9.5t-3.5 -10.5q-9 -23 -18 -62l-27 -82q-5 -15 -14.5 -44.5t-14.5 -45.5q-62 -199 -77 -246h-13 l-67 244q-4 15 -12.5 45t-12.5 45q-17 52 -24 82l-17 62q-1 5 -3.5 11.5t-3 9.5t-2 7.5t-1.5 6.5v5t1 5t2.5 4t4.5 4q3 3 10.5 8t10.5 8q43 26 43 84v68h-332v-62z" />
<glyph unicode="Z" horiz-adv-x="759" d="M39 51q0 -21 14.5 -37t38.5 -16h580q49 0 49 51v219h-72q-49 0 -78.5 -29t-29.5 -73h-262q-16 0 -21.5 12t0.5 25q0 1 21 53l49 133q16 42 67 177.5t82 213.5q28 75 100 262.5t115 300.5q1 1 1.5 3t1 5t1.5 5q4 16 4 30v93q0 25 -15.5 39t-41.5 14h-547q-47 0 -47 -49 v-111q0 -49 30 -79.5t83 -30.5h67v69q0 18 5 23.5t24 5.5h197q18 0 23.5 -9t0.5 -22q-2 -2 -20 -55l-49 -133q-121 -321 -150 -396l-215 -567q-1 -1 -2 -4.5t-2 -5.5q-2 -4 -2 -29v-88z" />
<glyph unicode="a" horiz-adv-x="821" d="M59 330q0 -165 70.5 -251.5t224.5 -86.5q43 0 70 8q63 16 94 45q5 -19 21 -32t39 -13h194v59q0 35 -17.5 66t-37.5 43q-10 8 -10 47v528q0 145 -70 218q-80 77 -248 77q-164 0 -244 -77q-69 -69 -69 -181v-73h43q75 0 104 6q47 10 47 49v-2q0 47 19 71q25 35 102 35 q81 0 105 -47q18 -35 18 -114v-15q-24 -8 -31 -10q-61 -15 -131 -21q-130 -13 -207 -84q-86 -83 -86 -239v-6zM244 311v19q0 69 37.5 117.5t97.5 54.5q14 1 36 4t27 4q61 11 74 16v-299q-9 -21 -27 -39q-30 -38 -100 -38q-67 0 -106 43.5t-39 117.5z" />
<glyph unicode="b" horiz-adv-x="845" d="M39 0h199q19 0 34 6q24 12 33 35q15 -15 41 -25q46 -24 125 -24q149 0 222 86t73 248v370q0 165 -67 251.5t-214 86.5q-44 0 -75 -8q-58 -15 -105 -47v448q0 61 -25 83t-69 22h-172v-68q0 -59 47 -92q23 -16 23 -43v-1128q0 -30 -21 -45q-49 -30 -49 -95v-61zM305 205 v330q0 178 2 280q15 15 39 25q39 24 90 24q58 0 93.5 -39.5t39.5 -117.5v-404q0 -158 -118 -158q-31 0 -64 11q-62 21 -82 49z" />
<glyph unicode="c" horiz-adv-x="747" d="M59 299q0 -307 316 -307q149 0 231 72t82 206v119h-84q-110 0 -110 -96v-2q0 -137 -119 -137q-61 0 -91 31.5t-30 109.5v436q0 66 32 103.5t89 37.5q54 0 86.5 -38t32.5 -91q0 -84 110 -84h84v105q0 114 -82 190q-87 80 -231 80q-316 0 -316 -309v-426z" />
<glyph unicode="d" horiz-adv-x="823" d="M59 326q0 -332 293 -332q44 0 78 6q58 11 88 41q4 -15 10 -21q16 -20 37 -20h219v61q0 58 -47 95q-22 16 -22 45v1218q0 59 -28 87t-95 28h-143v-68q0 -59 47 -92q22 -16 22 -43v-352q-23 16 -47 27q-62 28 -133 28q-147 0 -213 -86.5t-66 -251.5v-370zM254 315v392 q0 81 36 119t97 38q28 0 51 -10q48 -22 80 -51v-578q-2 -4 -8 -10q-8 -11 -29 -25q-50 -32 -108 -32q-119 0 -119 157z" />
<glyph unicode="e" d="M59 297q0 -153 84.5 -230t241.5 -77q155 0 239.5 62t84.5 192v137h-84q-53 0 -82 -32.5t-29 -82.5v-8q1 -47 -33 -76.5t-90 -29.5q-65 0 -101 28t-36 103v186h319q136 0 136 102v131q0 157 -85.5 243.5t-238.5 86.5q-154 0 -240 -86t-86 -244v-405zM254 608v105 q0 77 36 117t95 40q58 0 93.5 -40t35.5 -117v-105h-260z" />
<glyph unicode="f" horiz-adv-x="534" d="M39 848h121v-645q0 -29 -23 -45q-47 -29 -47 -95v-61h332v59q0 60 -45 95q-23 16 -23 45v647q58 0 88.5 31t30.5 82v63h-119v254q0 50 32 74q20 14 49 14q20 0 44 -6q6 -2 11.5 2.5t5.5 15.5v127q0 7 -7 14t-12 7q-48 12 -90 12q-82 0 -143 -45q-84 -63 -84 -174v-295 q-66 0 -93.5 -34t-27.5 -83v-59z" />
<glyph unicode="g" horiz-adv-x="825" d="M59 -141v-119q0 -113 91 -191q92 -79 237 -79q158 0 244 77t86 232v1042q0 32 20 43q49 34 49 97v63h-221q-13 0 -22 -6q-20 -17 -23 -39q-11 11 -55 31t-125 20q-148 0 -213.5 -82t-65.5 -246v-370q0 -164 72.5 -255t220.5 -91q57 0 91 13.5t75 43.5v-274 q0 -138 -143 -138q-123 0 -123 109v24q0 95 -111 95h-84zM256 295v432q0 66 37 103.5t96 37.5q39 0 60 -8q47 -18 71 -49v-606q-17 -21 -35 -31q-52 -29 -110 -29q-119 0 -119 150z" />
<glyph unicode="h" horiz-adv-x="866" d="M39 0h332v59q0 60 -45 95q-23 16 -23 45v616q12 15 33 27q43 26 100 26t92 -39t41 -116v-586q0 -127 86 -127h183v59q0 60 -45 95q-1 1 -4.5 3.5t-5 3.5l-4.5 3t-4 3.5t-3.5 4.5t-3.5 5t-2 5.5t-1.5 7t-0.5 7.5v505q0 161 -67 245.5t-214 84.5q-37 0 -75 -10 q-71 -22 -105 -51v516q0 49 -41 49h-223v-68q0 -61 45 -92q25 -16 25 -43v-1132q0 -29 -23 -45q-47 -29 -47 -95v-61z" />
<glyph unicode="i" horiz-adv-x="413" d="M39 0h336l-2 57q0 68 -47 97q-23 13 -23 43v790q0 39 -47 39h-217v-70q0 -55 45 -90q22 -16 25 -37v-639q-2 -17 -23 -34q-47 -29 -47 -97v-59zM90 1257q0 -43 31.5 -74.5t75.5 -31.5q43 0 74.5 31.5t31.5 74.5q0 44 -31.5 75.5t-74.5 31.5q-44 0 -75.5 -31.5 t-31.5 -75.5z" />
<glyph unicode="j" horiz-adv-x="417" d="M49 -354v-160q0 -17 33 -12q112 25 173.5 106.5t61.5 212.5v1184q0 28 -9.5 37.5t-35.5 9.5h-219v-70q0 -63 45 -90q20 -11 23 -37v-1044q0 -47 -14 -71t-44 -44l-8 -8q-6 -3 -6 -14zM90 1257q0 -43 31.5 -74.5t75.5 -31.5q43 0 74.5 31.5t31.5 74.5q0 44 -31.5 75.5 t-74.5 31.5q-44 0 -75.5 -31.5t-31.5 -75.5z" />
<glyph unicode="k" horiz-adv-x="790" d="M29 1460q0 -63 45 -90q24 -17 24 -45v-1124q0 -30 -22 -43q-41 -25 -41 -97v-59h319v57q0 67 -39 97q-22 13 -22 43v211l10 12l8 -14q7 -17 21 -37q5 -7 30 -52q8 -16 35 -61q44 -77 97 -164q31 -55 53.5 -73.5t60.5 -18.5h144v47q0 88 -52 109q-10 2 -22 10 q-13 11 -45 65l-43 74q-7 13 -25 43.5t-28 48.5q-5 9 -24.5 40.5t-27.5 47.5q-7 11 -21 34.5t-20 33.5l-16 27l184 247q17 28 47 41q52 21 52 109v47h-105q-51 0 -68 -6t-36 -31l-209 -270v764q0 47 -51 47h-213v-70z" />
<glyph unicode="l" horiz-adv-x="411" d="M39 0h334v57q0 68 -47 97q-23 13 -23 43v1288q0 51 -51 51h-213v-70q0 -55 45 -90q22 -16 25 -37v-1149q-1 -8 -3.5 -14t-4.5 -8t-8 -6.5t-7 -5.5q-47 -29 -47 -97v-59z" />
<glyph unicode="m" horiz-adv-x="1372" d="M39 0h332v59q0 60 -45 95q-23 16 -23 45v610l12 10q9 9 29 19q46 26 92 26q67 0 105 -30q49 -39 49 -107v-612q0 -42 29.5 -78.5t62.5 -36.5h170v59q0 66 -47 95q-21 21 -21 43v616q23 16 43 25q50 26 109 26q60 0 96.5 -38t36.5 -113v-590q0 -123 100 -123h164v59 q0 66 -47 95q-20 14 -20 43v520q0 161 -68.5 238t-220.5 77q-63 0 -109 -12q-83 -24 -145 -74q-68 86 -225 86q-47 0 -78 -8q-61 -12 -117 -45q-3 13 -8 20q-14 23 -39 23h-211v-109q0 -26 33 -55q2 -3 10 -11t11 -12t6.5 -12t3.5 -16v-604q0 -15 -3.5 -24t-7 -13t-12.5 -10 q-47 -29 -47 -95v-61z" />
<glyph unicode="n" horiz-adv-x="870" d="M39 0h334v59q0 64 -47 97q-23 13 -23 43v608q12 15 33 27q46 28 100 28q133 0 133 -149v-584q0 -129 93 -129h169v59q0 57 -45 97q-22 13 -22 41v514q0 163 -65.5 242t-215.5 79q-44 0 -75 -8q-61 -14 -105 -43l-6 20q-11 19 -25 22q-4 1 -10 1h-223v-70q0 -55 45 -90 q25 -14 25 -35v-626q0 -15 -3.5 -24t-7 -13t-12.5 -10q-47 -29 -47 -95v-61z" />
<glyph unicode="o" d="M59 307q0 -156 85 -236.5t241 -80.5q149 0 236.5 76.5t87.5 209.5v482q0 115 -88 194q-93 80 -236 80q-157 0 -241.5 -78t-84.5 -233v-414zM254 297v432q0 77 32.5 109t94.5 32q133 0 133 -149v-428q0 -67 -35.5 -103t-93.5 -36q-131 0 -131 143z" />
<glyph unicode="p" horiz-adv-x="843" d="M39 -446v-70h334v59q0 64 -47 97q-23 13 -23 43v364q39 -29 74.5 -42t91.5 -13q150 0 222.5 88.5t72.5 251.5v383q0 162 -65.5 239.5t-215.5 77.5q-79 0 -123 -20t-57 -33q0 10 -4 22q-14 23 -35 23h-225v-61q0 -68 47 -97q23 -13 23 -43v-1136q0 -25 -25 -43 q-45 -27 -45 -90zM303 223v606q11 11 39 27q48 27 94 27q57 0 93 -42t40 -122v-400q0 -157 -120 -157q-34 0 -64 10q-62 20 -82 51z" />
<glyph unicode="q" horiz-adv-x="823" d="M59 330q0 -163 72.5 -251.5t222.5 -88.5q57 0 92 13t74 42v-367q0 -30 -22 -43q-47 -33 -47 -96v-59h333v69q0 64 -45 91q-24 17 -24 45v1136q0 30 22 43q47 29 47 97v63h-211q-21 0 -30 -6q-23 -14 -23 -37q-15 15 -55 33q-44 20 -125 20q-148 0 -214.5 -81t-66.5 -244 v-379zM254 313v396q6 80 41.5 121.5t93.5 41.5q36 0 60 -6q41 -13 71 -43v-602q-11 -13 -39 -33q-50 -32 -106 -32q-121 0 -121 157z" />
<glyph unicode="r" horiz-adv-x="643" d="M39 0h332l2 57q0 68 -47 97q-21 12 -21 43v508q0 32 22.5 61.5t59.5 50.5q59 32 120 32q29 0 60 -7q47 -12 47 22v115q0 21 -12.5 32t-26.5 13q-32 7 -62 7q-47 0 -91 -17q-66 -24 -117 -64v27q0 45 -49 45h-217v-70q0 -61 47 -90q23 -16 23 -35v-626q0 -33 -21 -45 q-49 -30 -49 -97v-59z" />
<glyph unicode="s" horiz-adv-x="770" d="M59 254v129h93q62 0 84 -19t22 -77v-4q0 -61 27.5 -94t99.5 -33q73 0 101 33.5t28 95.5v20q0 30 -28.5 55.5t-84.5 55.5l-104 53q-131 69 -184 160q-33 50 -33 125v49q0 111 80.5 170t210.5 59q172 0 254 -76q73 -70 73 -192v-100h-77q-33 0 -51 2t-37 10.5t-27 28 t-8 51.5q0 46 -30.5 81t-86.5 35q-60 0 -86 -38q-21 -30 -21 -70q0 -74 115 -135q47 -27 105 -54q125 -59 184 -137q33 -44 33 -108v-54q0 -139 -83.5 -211.5t-232.5 -72.5q-155 0 -245.5 66.5t-90.5 195.5z" />
<glyph unicode="t" horiz-adv-x="550" d="M39 852h119v-647q0 -107 92 -168q63 -44 144 -44q44 0 93 13q10 5 17 12q8 8 8 35v76q0 17 -11 23t-24 4q-17 -3 -32 -3q-35 1 -59 17q-32 24 -32 68v614q127 0 127 135v41h-127v438q-59 -3 -98 -22q-98 -46 -98 -158v-258q-65 0 -92 -30t-27 -97v-49z" />
<glyph unicode="u" horiz-adv-x="856" d="M39 956q0 -66 37 -92q24 -14 24 -43v-516q0 -156 85.5 -237.5t240.5 -81.5q91 0 147 53q12 -23 25 -31t47 -8h172v59q0 64 -47 97q-20 11 -20 41v766q0 26 -16.5 43.5t-49.5 17.5h-192v-68q0 -66 38 -92q25 -14 25 -43v-622l-6 -11q-8 -12 -21 -20q-37 -29 -100 -29 q-60 0 -96.5 40t-36.5 118v657q0 70 -66 70h-190v-68z" />
<glyph unicode="v" horiz-adv-x="780" d="M39 954q0 -63 45 -90q11 -8 12.5 -11t7.5 -26q5 -16 13 -63l20 -137q9 -63 31 -192.5t27 -158.5q13 -71 24 -143q9 -63 12 -74q10 -40 25.5 -49.5t58.5 -9.5h189q25 0 38 15t19 46q37 203 49 283q12 88 27 180q10 71 27 172t20 121q9 48 12 51q45 35 45 97v59h-159 q-21 0 -37 -4q-19 -7 -25 -39l-10 -41q-3 -6 -6 -41q-4 -27 -15.5 -101.5t-17.5 -113.5q-3 -24 -10 -71t-10 -70q-6 -50 -14.5 -110.5t-20.5 -139.5t-19 -129q-24 151 -57 395q-3 26 -10.5 75t-10.5 71q-2 9 -20 129l-14 94q-6 35 -6 39q-6 37 -19 47t-47 10h-174v-70z" />
<glyph unicode="w" horiz-adv-x="1316" d="M39 954q0 -67 37 -90q16 -16 22 -45q14 -76 36 -207.5t24 -140.5q16 -90 22 -133q4 -25 12 -69t9 -50l14 -92q7 -44 8 -47q12 -80 82 -80h162q54 0 76 74l114 522l109 -526q25 -70 76 -70h170q51 0 69 72q10 57 32 176.5t32 175.5q22 126 47 256q8 48 18 94q5 37 9 51 q6 35 20 43q39 24 39 97v59h-145q-36 0 -56 -14q-7 -4 -12 -11t-8 -13t-6 -18.5t-4 -18.5t-3.5 -23t-3.5 -23l-16 -90q-19 -99 -47 -258q-12 -71 -66 -358l-80 374q-5 23 -15 69.5t-15 70.5l-27 125q-13 58 -18 92q-10 40 -11 41q-10 35 -31.5 45t-58.5 10q-32 0 -55 -10 q-6 -3 -11 -7t-8.5 -7.5t-6.5 -10t-5 -10t-4 -12.5l-3 -13.5t-3.5 -16.5t-3.5 -17q-12 -59 -47 -222l-31 -139q-17 -77 -80 -373q-13 78 -33 206t-26 167q-21 124 -23 139l-34 215q-2 10 -3.5 20.5t-2.5 15.5t-1 7q-11 68 -79 68h-156v-70z" />
<glyph unicode="x" horiz-adv-x="763" d="M39 0h287v100q0 38 -31 60q-9 9 -6 14v10l37 90q9 25 36 88l3 3q0 4 4 4l4 -4q0 -3 2 -3l61 -135q16 -40 43 -96q16 -42 23 -49q20 -41 40 -61.5t52 -20.5h131v96q0 60 -33 74q-33 11 -41 29l-162 295q-2 2 -2 6v18q0 4 2 6l78 156l54 108q22 48 24 48q3 12 10 20l9 8 q28 16 28 60v100h-274v-100q0 -40 28 -60q7 -7 7 -12q-2 -6 -2 -12l-58 -140l-4 -8q-1 -4 -4.5 -7t-5.5 -1q-1 0 -4.5 3t-3.5 5l-99 252q-23 52 -38.5 66t-47.5 14h-139v-90q0 -58 29 -74q27 -9 37 -29l141 -296l4 -13l4 -14q0 -1 -8 -25l-164 -299q-3 -11 -8 -16l-8 -8 q-35 -25 -35 -60v-100z" />
<glyph unicode="y" horiz-adv-x="772" d="M39 956q0 -30 0.5 -41t5.5 -23.5t16 -19.5q15 -12 21 -34l18 -88q34 -165 54 -287q4 -19 13 -74t15 -84l27 -141l6 -42t6 -40.5t7.5 -31.5t13 -27.5t20.5 -15.5t31 -7h76l-58 -317q-6 -14 -30 -23q-35 -15 -35 -72v-104h139q31 0 47 16q4 5 7 10.5t6 14.5t4.5 15.5 t4.5 20.5t4.5 22t5 28.5t5.5 30.5q3 20 12.5 68t14.5 77q14 84 36 199q20 119 39 223q2 12 17.5 95.5t23.5 127.5q36 206 64 352q3 18 6 35t5 29.5t3 15.5q1 1 2 4.5t2 5.5q7 7 13 11q9 6 18 24q8 16 8 58v59h-143q-41 0 -56 -12t-20 -43l-6 -43q-1 -10 -6 -43.5t-8 -55.5 q-5 -32 -45 -284l-62 -404q-13 86 -33.5 225.5t-27.5 186.5q-20 128 -23 152q-10 78 -18 133q-2 11 -8 45.5t-7 48.5l-6 37q-6 36 -19 46.5t-46 10.5h-160v-70z" />
<glyph unicode="z" horiz-adv-x="727" d="M59 35q0 -14 9.5 -24.5t25.5 -10.5h529q16 0 30.5 8.5t14.5 24.5v209h-121q-31 0 -48.5 -22.5t-17.5 -53.5h-184q-11 0 -18 7.5t-3 14.5q0 2 19 31q25 45 43 76q47 88 125 223q114 207 180 322q0 4 2 6q0 6 2 10v10v123q0 35 -37 35h-510q-30 0 -30 -33v-133 q0 -32 20 -52t55 -20h105v48q0 11 3 14.5t15 3.5h144q20 0 20 -10q0 -9 -20 -43l-43 -74q-81 -142 -125 -225q-86 -155 -181 -322q-2 -2 -2 -6q-2 -2 -2 -20v-117z" />
<glyph unicode="&#x2000;" horiz-adv-x="778" />
<glyph unicode="&#x2001;" horiz-adv-x="1556" />
<glyph unicode="&#x2002;" horiz-adv-x="778" />
<glyph unicode="&#x2003;" horiz-adv-x="1556" />
<glyph unicode="&#x2004;" horiz-adv-x="518" />
<glyph unicode="&#x2005;" horiz-adv-x="389" />
<glyph unicode="&#x2006;" horiz-adv-x="259" />
<glyph unicode="&#x2007;" horiz-adv-x="259" />
<glyph unicode="&#x2008;" horiz-adv-x="194" />
<glyph unicode="&#x2009;" horiz-adv-x="311" />
<glyph unicode="&#x200a;" horiz-adv-x="86" />
<glyph unicode="&#x202f;" horiz-adv-x="311" />
<glyph unicode="&#x205f;" horiz-adv-x="389" />
<glyph unicode="&#x25fc;" horiz-adv-x="1024" d="M0 0v1024h1024v-1024h-1024z" />
</font>
</defs>
</svg>
